<?xml version="1.0" standalone="no"?>
<!DOCTYPE svg PUBLIC "-//W3C//DTD SVG 20010904//EN"
 "http://www.w3.org/TR/2001/REC-SVG-20010904/DTD/svg10.dtd">
<svg version="1.0" xmlns="http://www.w3.org/2000/svg"
 width="759.000000pt" height="759.000000pt" viewBox="0 0 759.000000 759.000000"
 preserveAspectRatio="xMidYMid meet">
<metadata>
Created by potrace 1.14, written by Peter Selinger 2001-2017
</metadata>
<g transform="translate(0.000000,759.000000) scale(0.100000,-0.100000)"
fill="#000000" stroke="none">
<path d="M4977 7123 c-1 -1 -243 -4 -537 -8 -294 -3 -654 -8 -800 -10 -146 -2
-497 -7 -780 -10 -1164 -15 -1033 -10 -1050 -36 -8 -12 -31 -52 -51 -88 -19
-36 -77 -142 -129 -236 -51 -93 -110 -204 -132 -245 -22 -41 -51 -93 -63 -115
-13 -22 -101 -184 -198 -360 -96 -176 -186 -340 -199 -365 -90 -162 -234 -430
-247 -457 -8 -18 -19 -33 -23 -33 -4 0 -8 -9 -8 -20 0 -11 -4 -20 -10 -20 -5
0 -10 -5 -10 -10 0 -6 -20 -45 -43 -88 -24 -42 -60 -106 -79 -142 -19 -36 -76
-139 -125 -230 -50 -91 -105 -192 -123 -225 -30 -56 -45 -84 -142 -260 -21
-38 -49 -90 -61 -115 -12 -25 -25 -47 -28 -50 -3 -3 -29 -50 -59 -105 -29 -55
-57 -106 -63 -113 -7 -9 -1 -27 22 -63 17 -28 31 -55 31 -60 0 -5 5 -9 10 -9
6 0 10 -7 10 -15 0 -8 5 -15 11 -15 5 0 8 -4 4 -9 -3 -5 -1 -12 4 -16 5 -3 16
-18 24 -33 8 -15 58 -99 112 -187 54 -88 113 -185 130 -216 18 -31 44 -73 59
-95 14 -21 26 -44 26 -51 0 -7 4 -13 9 -13 5 0 14 -14 21 -31 7 -17 18 -36 24
-42 16 -17 181 -296 213 -359 38 -76 73 -131 81 -124 3 4 18 -15 33 -41 26
-44 32 -48 74 -53 25 -3 45 -3 45 0 0 4 21 4 48 0 26 -3 59 -3 72 0 14 4 37 3
53 -1 16 -5 27 -4 27 2 0 6 8 5 20 -1 11 -6 20 -7 20 -2 0 5 145 10 327 11
181 1 432 4 558 8 127 3 235 5 240 5 88 -5 470 -1 472 5 2 4 189 7 416 7 226
-1 416 1 421 4 5 3 30 4 55 3 25 -1 52 -1 59 -1 20 0 39 0 87 0 25 0 65 1 90
1 25 1 48 -1 52 -4 3 -4 13 -2 23 3 10 5 20 6 24 3 3 -3 27 -6 54 -5 26 1 66
2 90 2 23 0 49 0 57 0 8 0 22 0 30 0 8 0 21 0 28 1 6 0 95 3 196 5 101 2 185
5 186 6 5 6 797 1461 801 1473 3 7 -111 203 -252 436 -141 233 -279 461 -305
506 -46 79 -349 584 -355 592 -2 2 -10 -2 -19 -9 -10 -8 -37 -11 -80 -8 -36 2
-65 1 -65 -2 0 -4 -19 -4 -42 0 -24 3 -54 3 -68 0 -13 -3 -46 -3 -72 0 -26 4
-53 3 -59 -1 -7 -4 -26 -3 -43 2 -17 5 -32 5 -34 1 -1 -5 -22 -6 -45 -2 -23 3
-53 3 -67 0 -13 -3 -46 -3 -72 0 -27 4 -48 3 -48 -1 0 -4 -12 -4 -27 0 -16 5
-37 5 -48 1 -11 -4 -32 -4 -47 1 -15 4 -30 4 -33 -1 -3 -5 -16 -6 -28 -1 -12
5 -30 5 -41 2 -10 -4 -40 -4 -66 -1 -25 3 -58 3 -72 -1 -14 -4 -31 -3 -38 1
-7 4 -24 5 -38 1 -14 -4 -48 -4 -76 0 -28 3 -52 3 -54 -1 -1 -4 -22 -4 -45 0
-23 3 -53 3 -67 0 -13 -3 -47 -3 -75 1 -27 3 -52 2 -53 -2 -2 -5 -8 -7 -12 -4
-5 3 -30 5 -57 5 -81 -1 -126 -1 -167 0 -21 1 -39 0 -41 -2 -11 -12 -795
-1510 -795 -1520 0 -9 -3 -9 -11 -1 -13 13 -39 6 -39 -9 0 -5 25 -52 56 -104
l57 -95 280 1 c155 1 288 5 298 11 11 6 20 5 24 -1 4 -7 13 -7 26 0 12 7 19 7
19 1 0 -6 11 -6 30 -1 18 5 32 5 35 -1 4 -5 14 -5 25 1 13 7 21 7 25 0 4 -7
13 -7 26 0 12 7 19 7 19 1 0 -6 11 -6 30 -1 18 5 32 5 35 -1 4 -5 14 -5 25 1
13 7 21 7 25 0 4 -7 13 -7 26 0 12 7 19 7 19 1 0 -6 11 -6 30 -1 18 5 32 5 35
-1 4 -5 14 -5 25 1 13 7 21 7 25 0 4 -7 13 -7 26 0 11 6 19 7 19 1 0 -5 15 -5
38 0 20 4 184 9 363 9 l326 1 204 415 c111 228 206 414 209 414 4 0 87 -133
185 -296 l179 -296 -208 -416 -208 -417 -127 3 c-69 1 -163 3 -209 5 -45 1
-82 -2 -82 -6 0 -4 -9 -3 -20 3 -11 6 -20 7 -20 2 0 -5 -18 -6 -40 -2 -22 4
-40 3 -40 -2 0 -5 -9 -4 -20 2 -11 6 -20 7 -20 2 0 -5 -18 -6 -40 -2 -22 4
-40 3 -40 -2 0 -5 -9 -4 -20 2 -11 6 -20 7 -20 2 0 -5 -18 -6 -40 -2 -22 4
-40 3 -40 -2 0 -5 -9 -4 -20 2 -11 6 -20 7 -20 2 0 -5 -18 -6 -40 -2 -22 4
-40 3 -40 -2 0 -5 -9 -4 -20 2 -11 6 -20 7 -20 2 0 -5 -18 -6 -40 -2 -22 4
-40 3 -40 -2 0 -5 -9 -4 -20 2 -13 7 -20 7 -20 1 0 -7 -212 -11 -623 -11 -343
0 -637 -4 -653 -9 -18 -5 -37 -5 -47 1 -11 5 -24 5 -37 -2 -11 -6 -26 -8 -33
-3 -16 10 -48 10 -69 0 -10 -4 -18 -4 -18 2 0 5 -14 6 -34 1 -18 -4 -41 -3
-50 2 -10 5 -23 5 -36 -2 -11 -6 -26 -8 -33 -3 -16 10 -48 10 -70 0 -10 -4
-17 -4 -17 2 0 7 -9 7 -22 3 -51 -18 -40 -34 -380 531 l-119 199 105 191 c57
106 366 667 685 1247 l580 1055 135 0 c75 0 136 3 136 7 0 5 93 8 208 8 114 0
575 7 1024 15 449 8 1143 17 1543 19 399 2 728 5 731 8 2 3 -42 81 -98 174
-57 93 -148 244 -203 336 -55 92 -105 168 -112 168 -6 0 -24 23 -40 50 l-28
50 -313 -2 c-173 -2 -314 -4 -315 -5z"/>
<path d="M6240 6280 c6 -11 13 -20 16 -20 2 0 0 9 -6 20 -6 11 -13 20 -16 20
-2 0 0 -9 6 -20z"/>
<path d="M6270 6230 c6 -11 13 -20 16 -20 2 0 0 9 -6 20 -6 11 -13 20 -16 20
-2 0 0 -9 6 -20z"/>
<path d="M6300 6180 c6 -11 13 -20 16 -20 2 0 0 9 -6 20 -6 11 -13 20 -16 20
-2 0 0 -9 6 -20z"/>
<path d="M6330 6130 c6 -11 13 -20 16 -20 2 0 0 9 -6 20 -6 11 -13 20 -16 20
-2 0 0 -9 6 -20z"/>
<path d="M6360 6080 c6 -11 13 -20 16 -20 2 0 0 9 -6 20 -6 11 -13 20 -16 20
-2 0 0 -9 6 -20z"/>
<path d="M6390 6030 c6 -11 13 -20 16 -20 2 0 0 9 -6 20 -6 11 -13 20 -16 20
-2 0 0 -9 6 -20z"/>
<path d="M6420 5980 c6 -11 13 -20 16 -20 2 0 0 9 -6 20 -6 11 -13 20 -16 20
-2 0 0 -9 6 -20z"/>
<path d="M6450 5930 c6 -11 13 -20 16 -20 2 0 0 9 -6 20 -6 11 -13 20 -16 20
-2 0 0 -9 6 -20z"/>
<path d="M6476 5885 c4 -8 11 -15 16 -15 6 0 5 6 -2 15 -7 8 -14 15 -16 15 -2
0 -1 -7 2 -15z"/>
<path d="M6500 5856 c0 -11 70 -126 77 -126 2 0 -4 15 -15 33 -11 17 -29 48
-41 67 -11 19 -21 31 -21 26z"/>
<path d="M6590 5700 c6 -11 13 -20 16 -20 2 0 0 9 -6 20 -6 11 -13 20 -16 20
-2 0 0 -9 6 -20z"/>
<path d="M6616 5657 c3 -10 9 -15 12 -12 3 3 0 11 -7 18 -10 9 -11 8 -5 -6z"/>
<path d="M6680 5550 c6 -11 13 -20 16 -20 2 0 0 9 -6 20 -6 11 -13 20 -16 20
-2 0 0 -9 6 -20z"/>
<path d="M6710 5500 c6 -11 13 -20 16 -20 2 0 0 9 -6 20 -6 11 -13 20 -16 20
-2 0 0 -9 6 -20z"/>
<path d="M6740 5450 c6 -11 13 -20 16 -20 2 0 0 9 -6 20 -6 11 -13 20 -16 20
-2 0 0 -9 6 -20z"/>
<path d="M6128 5409 c-208 -3 -380 -8 -384 -12 -9 -8 288 -497 298 -490 5 2 8
1 7 -4 -3 -20 2 -34 11 -28 6 4 7 -1 3 -11 -5 -13 -3 -15 7 -9 8 5 11 4 6 -3
-3 -6 37 -82 90 -169 53 -87 181 -300 285 -474 l189 -316 -677 -1259 -678
-1259 -600 -7 c-330 -4 -773 -7 -985 -5 l-385 2 -125 207 c-69 113 -128 210
-132 213 -4 4 -56 7 -115 6 -59 -2 -115 -2 -123 -2 -24 0 -464 0 -475 -1 -5 0
-66 2 -133 5 -110 5 -123 4 -118 -10 6 -14 541 -903 670 -1113 41 -67 51 -76
84 -82 20 -4 213 -7 428 -7 298 -1 393 -4 403 -14 10 -10 11 -9 6 4 -5 14 1
17 32 17 21 0 191 3 378 6 302 5 1007 14 1479 20 l168 2 87 159 c80 147 114
209 191 350 15 28 71 131 125 230 97 178 113 208 172 315 17 30 43 80 59 110
16 30 31 57 34 60 3 3 23 39 44 80 22 41 43 77 46 80 4 3 10 15 14 27 4 12 28
59 54 105 26 46 54 97 62 113 8 17 17 32 20 35 5 5 38 67 94 175 12 22 24 42
27 45 3 3 25 43 49 90 23 47 47 87 51 88 5 2 9 12 9 23 0 10 3 19 8 19 4 0 18
25 32 55 14 30 28 55 33 55 4 0 7 6 7 13 0 7 11 29 25 50 14 20 23 37 19 37
-4 0 -1 8 7 18 8 9 21 31 30 47 69 131 305 561 309 565 3 3 11 19 18 35 8 17
21 41 30 55 9 14 17 27 17 30 0 3 17 35 38 72 20 36 37 71 37 77 0 6 3 11 8
11 4 0 18 23 31 50 13 28 30 50 38 50 11 0 11 6 -4 33 -10 17 -21 34 -25 35
-5 2 -8 7 -8 12 0 4 -19 39 -42 76 -23 38 -138 229 -256 424 -117 195 -221
366 -230 380 -9 14 -17 27 -17 30 0 3 -18 32 -39 65 -79 124 -236 388 -236
396 0 5 16 9 36 9 19 0 33 4 30 9 -3 5 -21 6 -39 2 -18 -5 -40 -5 -50 -2 -10
4 -47 4 -82 1 -36 -3 -73 -3 -82 0 -10 3 -188 3 -395 -1z"/>
<path d="M323 2547 c-4 -7 34 -77 44 -77 2 0 -5 15 -16 34 -27 42 -27 43 8 40
15 -1 35 2 42 7 9 6 -2 8 -29 6 -24 -1 -46 -5 -49 -10z"/>
<path d="M420 2556 c0 -2 7 -6 15 -10 8 -3 15 -1 15 4 0 6 -7 10 -15 10 -8 0
-15 -2 -15 -4z"/>
<path d="M510 2549 c0 -5 5 -7 10 -4 6 3 10 8 10 11 0 2 -4 4 -10 4 -5 0 -10
-5 -10 -11z"/>
<path d="M688 2553 c7 -3 16 -2 19 1 4 3 -2 6 -13 5 -11 0 -14 -3 -6 -6z"/>
<path d="M380 2440 c6 -11 13 -20 16 -20 2 0 0 9 -6 20 -6 11 -13 20 -16 20
-2 0 0 -9 6 -20z"/>
<path d="M410 2390 c6 -11 13 -20 16 -20 2 0 0 9 -6 20 -6 11 -13 20 -16 20
-2 0 0 -9 6 -20z"/>
<path d="M452 2324 c13 -22 31 -52 41 -65 10 -13 8 -6 -5 17 -13 22 -31 52
-41 65 -10 13 -8 6 5 -17z"/>
<path d="M537 2180 c15 -28 36 -60 47 -73 l18 -22 -14 25 c-8 14 -27 46 -42
73 -15 26 -30 47 -33 47 -2 0 8 -23 24 -50z"/>
<path d="M610 2060 c6 -11 13 -20 16 -20 2 0 0 9 -6 20 -6 11 -13 20 -16 20
-2 0 0 -9 6 -20z"/>
<path d="M643 2005 c9 -16 23 -39 32 -50 9 -11 7 -2 -6 20 -27 49 -47 72 -26
30z"/>
<path d="M710 1895 c0 -5 10 -21 21 -35 13 -17 17 -18 10 -5 -17 33 -31 51
-31 40z"/>
<path d="M790 1760 c6 -11 13 -20 16 -20 2 0 0 9 -6 20 -6 11 -13 20 -16 20
-2 0 0 -9 6 -20z"/>
<path d="M830 1697 c0 -10 51 -87 57 -87 5 0 -11 27 -44 75 -7 11 -13 16 -13
12z"/>
<path d="M917 1550 c15 -28 36 -60 47 -73 l18 -22 -14 25 c-8 14 -27 46 -42
73 -15 26 -30 47 -33 47 -2 0 8 -23 24 -50z"/>
<path d="M990 1430 c6 -11 13 -20 16 -20 2 0 0 9 -6 20 -6 11 -13 20 -16 20
-2 0 0 -9 6 -20z"/>
<path d="M1020 1380 c6 -11 13 -20 16 -20 2 0 0 9 -6 20 -6 11 -13 20 -16 20
-2 0 0 -9 6 -20z"/>
<path d="M1050 1331 c0 -6 4 -13 10 -16 6 -3 7 1 4 9 -7 18 -14 21 -14 7z"/>
<path d="M1081 1280 c14 -31 19 -36 19 -24 0 6 -7 19 -16 30 -14 18 -14 18 -3
-6z"/>
<path d="M1110 1231 c0 -6 4 -13 10 -16 6 -3 7 1 4 9 -7 18 -14 21 -14 7z"/>
<path d="M1140 1180 c6 -11 13 -20 16 -20 2 0 0 9 -6 20 -6 11 -13 20 -16 20
-2 0 0 -9 6 -20z"/>
<path d="M1200 1080 c6 -11 13 -20 16 -20 2 0 0 9 -6 20 -6 11 -13 20 -16 20
-2 0 0 -9 6 -20z"/>
<path d="M1270 963 c0 -6 8 -17 18 -24 16 -13 16 -13 2 6 -8 11 -16 22 -17 24
-2 2 -3 0 -3 -6z"/>
<path d="M1310 900 c6 -11 13 -20 16 -20 2 0 0 9 -6 20 -6 11 -13 20 -16 20
-2 0 0 -9 6 -20z"/>
<path d="M1340 850 c6 -11 13 -20 16 -20 2 0 0 9 -6 20 -6 11 -13 20 -16 20
-2 0 0 -9 6 -20z"/>
<path d="M1380 783 c0 -6 8 -17 18 -24 16 -13 16 -13 2 6 -8 11 -16 22 -17 24
-2 2 -3 0 -3 -6z"/>
<path d="M1430 700 c6 -11 13 -20 16 -20 2 0 0 9 -6 20 -6 11 -13 20 -16 20
-2 0 0 -9 6 -20z"/>
<path d="M1490 600 c6 -11 13 -20 16 -20 2 0 0 9 -6 20 -6 11 -13 20 -16 20
-2 0 0 -9 6 -20z"/>
<path d="M3700 530 c6 -11 13 -20 16 -20 2 0 0 9 -6 20 -6 11 -13 20 -16 20
-2 0 0 -9 6 -20z"/>
<path d="M1550 500 c6 -11 13 -20 16 -20 2 0 0 9 -6 20 -6 11 -13 20 -16 20
-2 0 0 -9 6 -20z"/>
</g>
</svg>
